<?xml version="1.0" standalone="no"?>
<!DOCTYPE svg PUBLIC "-//W3C//DTD SVG 20010904//EN"
 "http://www.w3.org/TR/2001/REC-SVG-20010904/DTD/svg10.dtd">
<svg version="1.0" xmlns="http://www.w3.org/2000/svg"
 width="256.000000pt" height="256.000000pt" viewBox="0 0 256.000000 256.000000"
 preserveAspectRatio="xMidYMid meet">
<metadata>
Created by potrace 1.14, written by Peter Selinger 2001-2017
</metadata>
<g transform="translate(0.000000,256.000000) scale(0.100000,-0.100000)"
fill="#000000" stroke="none">
<path d="M1227 2470 c-16 -5 -34 -13 -41 -19 -7 -6 -57 -22 -112 -36 -474
-120 -724 -517 -724 -1150 0 -219 25 -393 79 -550 l27 -81 -68 -174 c-80 -205
-84 -236 -34 -286 45 -45 107 -48 158 -7 40 34 48 44 41 56 -3 5 0 13 6 17 7
4 13 13 15 21 1 8 8 24 14 36 7 13 10 23 7 23 -3 0 1 10 10 23 8 13 12 28 8
33 -4 5 13 -9 37 -32 106 -96 196 -150 325 -193 149 -49 262 -64 453 -58 199
6 277 24 429 98 105 50 118 55 118 42 5 -68 117 -119 183 -84 30 16 62 69 62
103 0 15 -14 62 -30 103 -28 70 -29 78 -15 98 33 48 5 140 -51 165 -14 7 -29
10 -32 8 -4 -2 -116 273 -250 613 -133 339 -276 701 -317 805 l-74 188 56 -7
c78 -10 196 -49 273 -92 42 -23 98 -69 157 -129 58 -59 101 -95 115 -96 63 -4
103 13 124 54 35 67 4 139 -102 239 -153 144 -343 226 -571 249 -137 13 -192
19 -223 25 -14 2 -38 0 -53 -5z m-171 -315 c-3 -8 -41 -106 -85 -218 -44 -111
-143 -361 -219 -555 l-139 -352 -7 76 c-23 282 16 550 110 743 39 80 60 110
128 176 93 92 230 176 212 130z m236 -135 c4 0 5 -6 2 -14 -3 -7 1 -20 9 -27
7 -8 12 -19 10 -25 -2 -7 2 -18 10 -25 7 -8 12 -20 9 -27 -2 -6 0 -12 5 -12 5
0 10 -10 10 -22 1 -13 7 -24 12 -26 5 -2 8 -9 5 -16 -3 -8 1 -20 9 -27 7 -8
12 -19 10 -25 -2 -7 2 -18 10 -25 7 -8 12 -20 9 -27 -2 -6 1 -12 7 -12 6 0 8
-6 5 -14 -3 -7 1 -20 9 -27 7 -8 12 -19 10 -25 -2 -7 2 -18 10 -25 7 -8 12
-19 10 -25 -2 -7 2 -18 10 -25 7 -8 12 -20 9 -27 -2 -6 1 -12 7 -12 6 0 8 -6
5 -14 -3 -7 1 -20 9 -27 7 -8 12 -19 10 -25 -2 -7 2 -18 9 -25 7 -8 13 -20 14
-26 3 -39 5 -44 14 -38 6 3 7 -1 4 -9 -3 -9 -1 -16 5 -16 6 0 8 -6 5 -14 -3
-7 1 -20 9 -27 7 -8 12 -19 10 -25 -2 -7 2 -18 9 -25 7 -8 13 -20 14 -26 3
-39 5 -44 14 -38 6 3 7 -1 4 -9 -3 -9 -1 -16 5 -16 6 0 8 -6 5 -14 -3 -7 1
-20 9 -27 7 -8 12 -19 10 -25 -2 -7 3 -19 12 -28 15 -15 -15 -16 -377 -16
-387 0 -394 0 -394 20 0 11 4 20 9 20 5 0 6 7 3 16 -4 10 -2 13 6 8 8 -5 9 -2
5 9 -3 10 -2 17 4 17 6 0 9 6 7 12 -3 7 2 19 9 27 8 7 12 18 10 25 -2 6 3 17
10 25 8 7 12 20 9 27 -3 8 -1 14 5 14 6 0 9 6 7 12 -3 7 2 19 9 27 8 7 12 20
9 27 -3 8 -1 14 5 14 6 0 8 7 5 16 -4 10 -2 13 6 8 8 -5 9 -2 5 9 -3 10 -2 17
4 17 6 0 9 6 7 12 -3 7 2 19 9 27 8 7 12 20 9 27 -3 8 -1 14 5 14 6 0 8 7 5
16 -4 10 -2 13 6 8 8 -5 9 -2 5 9 -3 10 -2 17 4 17 6 0 9 6 7 12 -3 7 2 19 9
27 8 7 12 18 10 25 -2 6 3 17 10 25 8 7 12 20 9 27 -3 8 -1 14 5 14 6 0 9 6 7
12 -3 7 2 19 9 27 8 7 12 18 10 25 -2 6 3 17 10 25 8 7 12 20 9 27 -3 8 -1 14
5 14 6 0 9 7 5 15 -3 8 -1 15 5 15 6 0 7 5 4 10 -3 6 -1 10 5 10 7 0 10 6 8
12 -3 7 2 19 9 27 8 7 12 19 9 27 -3 7 0 14 5 16 5 2 11 13 12 26 0 12 5 22
10 22 5 0 7 6 4 14 -3 8 -1 16 5 18 6 2 12 15 14 29 4 36 5 37 17 7 6 -16 14
-28 19 -28z m452 -1203 c7 -7 11 -17 9 -23 -2 -7 2 -18 9 -25 7 -8 13 -20 14
-26 3 -39 5 -44 14 -38 6 3 7 -1 4 -9 -3 -9 -1 -16 5 -16 6 0 8 -6 5 -14 -3
-7 1 -20 9 -27 7 -8 12 -19 10 -25 -2 -7 2 -18 10 -25 7 -8 12 -19 10 -25 -2
-7 2 -18 9 -25 7 -8 14 -22 16 -31 1 -10 3 -25 5 -34 3 -19 -100 -84 -182
-115 -109 -41 -186 -51 -341 -46 -163 6 -248 25 -365 83 -123 60 -248 191
-251 261 0 18 4 33 9 33 5 0 6 7 3 16 -4 10 -2 13 6 8 8 -5 9 -2 5 9 -4 10 -2
17 4 17 6 0 8 7 5 16 -4 10 -2 13 6 8 8 -5 9 -2 5 9 -4 10 -2 17 4 17 6 0 8 7
5 16 -3 8 -2 12 4 9 6 -3 10 -1 10 4 0 17 927 15 944 -2z"/>
</g>
</svg>
